<?xml version="1.0" encoding="utf-8"?>
<!-- Generator: Adobe Illustrator 24.1.1, SVG Export Plug-In . SVG Version: 6.00 Build 0)  -->
<svg version="1.1" xmlns="http://www.w3.org/2000/svg" xmlns:xlink="http://www.w3.org/1999/xlink" x="0px" y="0px"
	 viewBox="0 0 198.43 141.73" style="enable-background:new 0 0 198.43 141.73;" xml:space="preserve">
<style type="text/css">
	.st0{fill:#FFFFFF;}
	.st1{fill:#676667;}
	.st2{fill:#343334;}
	.st3{fill:#DBDBDB;}
	.st4{fill:#919191;}
	.st5{display:none;}
	.st6{display:inline;}
	.st7{display:inline;fill:#E8E8E8;}
</style>
<g id="Слой_1">
	<rect x="109.33" y="54.56" class="st0" width="6.59" height="6.59"/>
	<g>
		<polygon class="st1" points="142.29,54.56 142.29,47.97 142.29,41.37 135.69,41.37 135.69,34.79 129.1,34.79 129.1,28.19 
			122.51,28.19 115.92,28.19 115.92,34.79 122.51,34.79 122.51,41.37 129.1,41.37 129.1,47.97 129.1,54.56 135.69,54.56 
			135.69,61.15 135.69,67.75 135.69,74.33 135.69,80.93 135.69,87.52 129.1,87.52 129.1,94.11 122.51,94.11 122.51,100.71 
			115.92,100.71 115.92,107.3 109.33,107.3 109.33,113.89 102.73,113.89 96.14,113.89 89.55,113.89 82.96,113.89 82.96,120.48 
			89.55,120.48 96.14,120.48 102.73,120.48 109.33,120.48 115.92,120.48 115.92,113.89 122.51,113.89 129.1,113.89 129.1,107.3 
			135.69,107.3 135.69,100.71 142.29,100.71 142.29,94.11 142.29,87.52 148.88,87.52 148.88,80.93 148.88,74.33 148.88,67.75 
			148.88,61.15 148.88,54.56 		"/>
		<polygon class="st1" points="109.33,21.6 102.73,21.6 102.73,28.19 109.33,28.19 115.92,28.19 115.92,21.6 		"/>
		<polygon class="st1" points="76.36,107.3 69.77,107.3 69.77,113.89 76.36,113.89 82.96,113.89 82.96,107.3 		"/>
		<rect x="63.18" y="100.71" class="st1" width="6.59" height="6.59"/>
	</g>
	<g>
		<polygon class="st2" points="129.1,54.56 129.1,47.97 122.51,47.97 115.92,47.97 115.92,54.56 115.92,61.15 109.33,61.15 
			109.33,67.75 115.92,67.75 115.92,74.33 122.51,74.33 129.1,74.33 129.1,67.75 135.69,67.75 135.69,61.15 135.69,54.56 		"/>
		<rect x="122.51" y="87.52" class="st2" width="6.59" height="6.59"/>
		<polygon class="st2" points="109.33,94.11 102.73,94.11 96.14,94.11 89.55,94.11 82.96,94.11 76.36,94.11 76.36,100.71 
			82.96,100.71 89.55,100.71 96.14,100.71 102.73,100.71 109.33,100.71 115.92,100.71 122.51,100.71 122.51,94.11 115.92,94.11 		
			"/>
		<rect x="69.77" y="87.52" class="st2" width="6.59" height="6.59"/>
		<polygon class="st2" points="69.77,74.33 76.36,74.33 82.96,74.33 82.96,67.75 89.55,67.75 89.55,61.15 89.55,54.56 82.96,54.56 
			82.96,47.97 76.36,47.97 69.77,47.97 69.77,54.56 69.77,61.15 63.18,61.15 63.18,67.75 69.77,67.75 		"/>
	</g>
	<rect x="63.18" y="54.56" class="st0" width="6.59" height="6.59"/>
	<g>
		<rect x="89.55" y="28.19" class="st3" width="6.59" height="6.59"/>
		<polygon class="st3" points="76.36,34.79 76.36,41.37 69.77,41.37 69.77,47.97 76.36,47.97 82.96,47.97 89.55,47.97 89.55,41.37 
			89.55,34.79 82.96,34.79 		"/>
		<polygon class="st3" points="76.36,74.33 69.77,74.33 69.77,80.93 69.77,87.52 76.36,87.52 76.36,94.11 82.96,94.11 82.96,87.52 
			82.96,80.93 76.36,80.93 		"/>
		<rect x="63.18" y="67.75" class="st3" width="6.59" height="6.59"/>
		<rect x="63.18" y="47.97" class="st3" width="6.59" height="6.59"/>
	</g>
	<polygon class="st4" points="129.1,67.75 129.1,74.33 122.51,74.33 115.92,74.33 115.92,67.75 109.33,67.75 109.33,61.15 
		109.33,54.56 115.92,54.56 115.92,47.97 122.51,47.97 129.1,47.97 129.1,41.37 122.51,41.37 122.51,34.79 115.92,34.79 
		115.92,28.19 109.33,28.19 102.73,28.19 102.73,21.6 96.14,21.6 89.55,21.6 82.96,21.6 82.96,28.19 76.36,28.19 69.77,28.19 
		69.77,34.79 63.18,34.79 63.18,41.37 56.58,41.37 56.58,47.97 56.58,54.56 50,54.56 50,61.15 50,67.75 50,74.33 50,80.93 50,87.52 
		56.58,87.52 56.58,94.11 56.58,100.71 63.18,100.71 69.77,100.71 69.77,107.3 76.36,107.3 82.96,107.3 82.96,113.89 89.55,113.89 
		96.14,113.89 102.73,113.89 109.33,113.89 109.33,107.3 115.92,107.3 115.92,100.71 109.33,100.71 102.73,100.71 96.14,100.71 
		89.55,100.71 82.96,100.71 76.36,100.71 76.36,94.11 69.77,94.11 69.77,87.52 69.77,80.93 69.77,74.33 63.18,74.33 63.18,67.75 
		63.18,61.15 63.18,54.56 63.18,47.97 69.77,47.97 69.77,41.37 76.36,41.37 76.36,34.79 82.96,34.79 89.55,34.79 89.55,28.19 
		96.14,28.19 96.14,34.79 89.55,34.79 89.55,41.37 89.55,47.97 82.96,47.97 82.96,54.56 89.55,54.56 89.55,61.15 89.55,67.75 
		82.96,67.75 82.96,74.33 76.36,74.33 76.36,80.93 82.96,80.93 82.96,87.52 82.96,94.11 89.55,94.11 96.14,94.11 102.73,94.11 
		109.33,94.11 115.92,94.11 122.51,94.11 122.51,87.52 129.1,87.52 135.69,87.52 135.69,80.93 135.69,74.33 135.69,67.75 	"/>
</g>
<g id="Слой_2" class="st5">
	<g class="st6">
		<g>
			<rect x="86.03" y="34.69" class="st0" width="6.59" height="6.59"/>
			<polygon class="st0" points="66.25,34.69 59.66,34.69 59.66,34.68 53.07,34.68 53.07,41.27 53.06,41.27 53.06,47.87 53.06,54.46 
				59.66,54.46 59.66,47.87 59.66,41.27 66.25,41.27 72.84,41.27 79.44,41.27 79.44,34.69 72.84,34.69 			"/>
		</g>
		<rect x="99.21" y="87.42" class="st1" width="6.59" height="6.59"/>
		<rect x="86.03" y="87.42" class="st1" width="6.59" height="6.59"/>
		<rect x="72.84" y="87.42" class="st1" width="6.59" height="6.59"/>
		<rect x="59.66" y="87.42" class="st1" width="6.59" height="6.59"/>
		<rect x="46.47" y="87.42" class="st1" width="6.59" height="6.59"/>
		<rect x="92.61" y="94.01" class="st1" width="6.59" height="6.59"/>
		<rect x="79.43" y="94.01" class="st1" width="6.59" height="6.59"/>
		<rect x="66.24" y="94.01" class="st1" width="6.59" height="6.59"/>
		<rect x="53.06" y="94.01" class="st1" width="6.59" height="6.59"/>
		<rect x="39.88" y="94.01" class="st1" width="6.59" height="6.59"/>
		<rect x="118.98" y="87.42" class="st1" width="6.59" height="6.59"/>
		<rect x="112.4" y="94.01" class="st1" width="6.59" height="6.59"/>
		<rect x="132.17" y="87.42" class="st1" width="6.59" height="6.59"/>
		<rect x="145.36" y="87.42" class="st1" width="6.59" height="6.59"/>
		<rect x="125.57" y="94.01" class="st1" width="6.59" height="6.59"/>
		<rect x="138.76" y="94.01" class="st1" width="6.59" height="6.59"/>
		<rect x="151.94" y="94.01" class="st1" width="6.59" height="6.59"/>
		<g>
			<path class="st4" d="M59.66,80.83h6.59h6.59h6.59h6.59h6.59h6.59h6.59h6.59h6.59h6.59h6.59h6.59h6.59h6.59v-6.59v-6.59v-6.59
				v-6.59v-6.59v-6.59v-6.59v-6.59h-6.59h-6.59h-6.59h-6.59h-6.59h-6.59h-6.59h-6.59h-6.59h-6.59h-6.59h-6.59h-6.59h-6.59h-6.59
				h-6.59v6.59v0.01v6.59v6.59v0v6.59v0v6.59v6.59v6.59v6.59h6.59H59.66z M53.06,67.65v-6.59v-6.59v0v-6.59v0v-6.59v-6.59h6.59h6.59
				h6.59h6.59h6.59h6.59h6.59h6.59h6.59h6.59h6.59h6.59h6.59h6.59v6.59v6.59v6.59v6.59v6.59v6.59h-6.59h-6.59h-6.59h-6.59h-6.59
				h-6.59h-6.59h-6.59h-6.59h-6.59h-6.59h-6.59h-6.59h-6.59V67.65z"/>
			<rect x="33.29" y="107.21" class="st4" width="6.59" height="6.59"/>
			<polygon class="st4" points="158.54,107.21 151.95,107.21 151.94,107.21 145.36,107.21 138.76,107.21 132.17,107.21 
				125.58,107.21 118.98,107.21 112.4,107.21 105.81,107.21 99.21,107.21 92.62,107.21 86.03,107.21 79.44,107.21 72.84,107.21 
				66.25,107.21 59.66,107.21 53.06,107.21 46.47,107.21 39.89,107.21 39.89,113.81 46.47,113.81 53.06,113.81 59.66,113.81 
				66.25,113.81 72.84,113.81 79.44,113.81 86.03,113.81 92.62,113.81 99.21,113.81 105.81,113.81 112.4,113.81 118.98,113.81 
				125.58,113.81 132.17,113.81 138.76,113.81 145.36,113.81 151.94,113.81 151.95,113.81 158.54,113.81 165.13,113.81 
				165.13,107.21 			"/>
			<rect x="92.62" y="87.42" class="st4" width="6.59" height="6.59"/>
			<polygon class="st4" points="92.61,100.6 92.61,94.01 86.03,94.01 86.03,87.42 79.44,87.42 79.44,94.01 86.02,94.01 86.02,100.6 
							"/>
			<polygon class="st4" points="79.43,100.6 79.43,94.01 72.84,94.01 72.84,87.42 66.25,87.42 66.25,94.01 72.84,94.01 72.84,100.6 
							"/>
			<polygon class="st4" points="66.24,100.6 66.24,94.01 59.66,94.01 59.66,87.42 53.06,87.42 53.06,94.01 59.65,94.01 59.65,100.6 
							"/>
			<polygon class="st4" points="46.46,100.6 53.06,100.6 53.06,94.01 46.47,94.01 46.47,87.42 39.89,87.42 39.89,94.01 46.46,94.01 
							"/>
			<rect x="33.29" y="94.01" class="st4" width="6.59" height="6.59"/>
			<polygon class="st4" points="118.98,94.01 118.98,87.42 112.4,87.42 105.81,87.42 105.81,94.01 112.4,94.01 			"/>
			<polygon class="st4" points="112.4,100.61 112.4,94.01 105.81,94.01 99.21,94.01 99.21,100.61 105.81,100.61 			"/>
			<rect x="118.98" y="94.01" class="st4" width="6.59" height="6.59"/>
			<polygon class="st4" points="151.94,87.42 151.94,94.01 145.36,94.01 145.36,87.42 138.76,87.42 138.76,94.01 132.17,94.01 
				132.17,87.42 125.58,87.42 125.58,94.01 132.17,94.01 132.17,100.6 138.76,100.6 138.76,94.01 145.35,94.01 145.35,100.6 
				151.94,100.6 151.94,94.01 158.53,94.01 158.53,100.6 165.13,100.6 165.13,94.01 158.54,94.01 158.54,87.42 			"/>
		</g>
		<g>
			<polygon class="st2" points="79.44,34.69 79.44,41.27 72.84,41.27 66.25,41.27 59.66,41.27 59.66,47.87 59.66,54.46 53.06,54.46 
				53.06,61.05 53.06,67.65 53.06,74.23 59.66,74.23 66.25,74.23 72.84,74.23 79.44,74.23 86.03,74.23 92.62,74.23 99.21,74.23 
				105.81,74.23 112.4,74.23 118.98,74.23 125.58,74.23 132.17,74.23 138.76,74.23 145.36,74.23 145.36,67.65 145.36,61.05 
				145.36,54.46 145.36,47.87 145.36,41.27 145.36,34.69 138.76,34.69 132.17,34.69 125.58,34.69 118.98,34.69 112.4,34.69 
				105.81,34.69 99.21,34.69 92.62,34.69 92.62,41.27 86.03,41.27 86.03,34.69 			"/>
			<polygon class="st2" points="59.66,28.09 66.25,28.09 72.85,28.09 79.44,28.09 86.03,28.09 92.62,28.09 99.21,28.09 
				105.81,28.09 112.4,28.09 118.98,28.09 125.58,28.09 132.17,28.09 138.76,28.09 145.36,28.09 151.94,28.09 151.94,21.5 
				145.36,21.5 138.76,21.5 132.17,21.5 125.58,21.5 118.98,21.5 112.4,21.5 105.81,21.5 99.21,21.5 92.62,21.5 86.03,21.5 
				79.44,21.5 72.85,21.5 66.25,21.5 59.66,21.5 53.07,21.5 46.47,21.5 46.47,28.09 53.07,28.09 			"/>
			<polygon class="st2" points="39.89,87.42 46.47,87.42 53.06,87.42 59.66,87.42 66.25,87.42 72.84,87.42 79.44,87.42 86.03,87.42 
				92.62,87.42 99.21,87.42 105.81,87.42 112.4,87.42 118.98,87.42 125.58,87.42 132.17,87.42 138.76,87.42 145.36,87.42 
				151.94,87.42 151.95,87.42 158.54,87.42 158.54,80.83 158.54,74.23 158.54,67.65 158.54,61.05 158.54,54.46 158.54,47.87 
				158.54,41.27 158.54,34.69 158.54,28.09 151.95,28.09 151.95,34.69 151.95,41.27 151.95,47.87 151.95,54.46 151.95,61.05 
				151.95,67.65 151.95,74.23 151.95,80.83 151.94,80.83 145.36,80.83 138.76,80.83 132.17,80.83 125.58,80.83 118.98,80.83 
				112.4,80.83 105.81,80.83 99.21,80.83 92.62,80.83 86.03,80.83 79.44,80.83 72.84,80.83 66.25,80.83 59.66,80.83 53.06,80.83 
				46.47,80.83 46.47,74.24 46.47,74.23 46.47,67.65 46.47,61.05 46.47,54.46 46.47,47.87 46.47,41.27 46.47,34.69 46.47,34.68 
				46.47,28.09 39.89,28.09 39.89,34.68 39.89,34.69 39.89,41.27 39.89,47.87 39.89,54.46 39.89,61.05 39.89,67.65 39.89,74.23 
				39.89,74.24 39.89,80.83 39.89,87.42 33.3,87.42 33.3,94.01 39.89,94.01 			"/>
			<polygon class="st2" points="33.29,113.64 33.29,107.21 26.7,107.21 26.7,113.81 33.29,113.81 33.29,120.24 39.88,120.24 
				46.47,120.24 46.47,113.64 39.88,113.64 			"/>
			<polygon class="st2" points="138.76,113.64 132.17,113.64 125.58,113.64 118.98,113.64 112.4,113.64 105.81,113.64 99.21,113.64 
				92.62,113.64 86.03,113.64 79.44,113.64 72.85,113.64 66.25,113.64 59.66,113.64 53.07,113.64 46.47,113.64 46.47,120.24 
				53.07,120.24 59.66,120.24 66.25,120.24 72.85,120.24 79.44,120.24 86.03,120.24 92.62,120.24 99.21,120.24 105.81,120.24 
				112.4,120.24 118.98,120.24 125.58,120.24 132.17,120.24 138.76,120.24 145.36,120.24 151.94,120.24 151.94,113.64 
				145.36,113.64 			"/>
			<polygon class="st2" points="33.29,107.2 39.88,107.2 39.88,100.61 33.29,100.61 26.7,100.61 20.11,100.61 20.11,107.2 
				26.7,107.2 			"/>
			<polygon class="st2" points="165.13,113.64 158.55,113.64 151.95,113.64 151.95,120.24 158.55,120.24 165.14,120.24 
				165.14,113.81 171.73,113.81 171.73,107.21 165.13,107.21 			"/>
			<polygon class="st2" points="171.73,100.61 171.72,100.61 165.13,100.61 158.54,100.61 151.95,100.61 151.94,100.61 
				145.36,100.61 138.76,100.61 132.17,100.61 125.58,100.61 118.98,100.61 112.4,100.61 105.81,100.61 99.21,100.61 92.62,100.61 
				86.03,100.61 79.44,100.61 72.84,100.61 66.25,100.61 59.66,100.61 53.06,100.61 46.47,100.61 39.89,100.61 39.89,107.2 
				46.47,107.2 53.06,107.2 59.66,107.2 66.25,107.2 72.84,107.2 79.44,107.2 86.03,107.2 92.62,107.2 99.21,107.2 105.81,107.2 
				112.4,107.2 118.98,107.2 125.58,107.2 132.17,107.2 138.76,107.2 145.36,107.2 151.94,107.2 151.95,107.2 158.54,107.2 
				165.13,107.2 171.72,107.2 171.73,107.2 178.32,107.2 178.32,100.61 			"/>
			<rect x="26.7" y="94.01" class="st2" width="6.59" height="6.59"/>
			<polygon class="st2" points="165.13,100.61 171.72,100.61 171.72,94.01 165.13,94.01 165.13,87.42 158.54,87.42 158.54,94.01 
				165.13,94.01 			"/>
		</g>
	</g>
</g>
<g id="Слой_3" class="st5">
	<g class="st6">
		<path class="st2" d="M134.05,45.01v-6.59h-6.59h-6.59v-6.59h-6.59h-6.59v-6.59h-6.59h-6.59H87.9v6.59h-6.59h-6.59v6.59h-6.59
			h-6.59v6.59h-6.59v6.59v6.59v6.59v6.59v6.59h6.59v6.59h6.59v6.59h6.59h6.59v6.59h-6.59v6.59v6.59h6.59h6.59h6.59v-6.59h6.59h6.59
			v-6.59h6.59h6.59v-6.59h6.59h6.59v-6.59h6.59v-6.59v-6.59v-6.59V58.2V51.6v-6.59H134.05z M68.13,64.79V58.2h6.59h6.59v6.59v6.59
			h-6.59h-6.59V64.79z M107.68,64.79v6.59h-6.59h-6.59v-6.59V58.2h6.59h6.59V64.79z M134.05,64.79v6.59h-6.59h-6.59v-6.59V58.2h6.59
			h6.59V64.79z"/>
		<rect x="68.13" y="104.35" class="st2" width="6.59" height="6.59"/>
	</g>
	<g class="st6">
		<polygon class="st0" points="147.23,77.97 147.23,77.97 147.23,71.38 147.23,64.79 147.23,58.2 147.23,51.6 147.23,45.01 
			140.64,45.01 140.64,51.6 140.64,58.2 140.64,64.79 140.64,71.38 140.64,77.97 140.64,77.97 140.64,84.57 134.05,84.57 
			134.05,91.16 140.64,91.16 140.64,84.57 147.23,84.57 		"/>
		<rect x="134.05" y="38.42" class="st0" width="6.59" height="6.59"/>
		<polygon class="st0" points="134.05,71.38 134.05,64.79 134.05,58.2 127.46,58.2 120.86,58.2 120.86,64.79 120.86,71.38 
			127.46,71.38 		"/>
		<polygon class="st0" points="127.46,31.83 120.86,31.83 120.86,38.42 127.46,38.42 134.05,38.42 134.05,31.83 		"/>
		<polygon class="st0" points="127.46,91.16 120.86,91.16 120.86,97.75 127.46,97.75 127.46,97.75 134.05,97.75 134.05,91.16 
			127.46,91.16 		"/>
		<polygon class="st0" points="114.27,25.24 107.68,25.24 107.68,31.83 114.27,31.83 120.86,31.83 120.86,25.24 		"/>
		<polygon class="st0" points="107.68,97.75 107.68,104.35 114.27,104.35 120.86,104.35 120.86,97.75 114.27,97.75 		"/>
		<polygon class="st0" points="107.68,71.38 107.68,64.79 107.68,58.2 101.09,58.2 94.49,58.2 94.49,64.79 94.49,71.38 
			101.09,71.38 		"/>
		<polygon class="st0" points="101.09,18.64 94.49,18.64 87.9,18.64 87.9,25.24 94.49,25.24 101.09,25.24 107.68,25.24 
			107.68,18.64 		"/>
		<polygon class="st0" points="94.49,104.35 94.49,110.93 87.91,110.93 81.31,110.93 74.72,110.93 68.13,110.93 68.13,110.93 
			68.13,104.35 61.54,104.35 61.54,110.93 61.54,110.93 61.54,117.53 68.13,117.53 74.72,117.53 81.31,117.53 87.91,117.53 
			94.5,117.53 94.5,110.93 101.09,110.93 107.68,110.93 107.68,104.35 101.09,104.35 		"/>
		<polygon class="st0" points="81.31,71.38 81.31,64.79 81.31,58.2 74.72,58.2 68.13,58.2 68.13,64.79 68.13,71.38 74.72,71.38 		
			"/>
		<polygon class="st0" points="74.72,25.24 74.72,31.83 81.31,31.83 87.9,31.83 87.9,25.24 81.31,25.24 		"/>
		<polygon class="st0" points="74.72,97.75 81.31,97.75 81.31,91.16 74.72,91.16 68.13,91.16 68.13,97.75 68.13,104.35 
			74.72,104.35 		"/>
		<rect x="61.53" y="84.57" class="st0" width="6.59" height="6.59"/>
		<polygon class="st0" points="68.13,31.83 61.53,31.83 61.53,38.42 54.94,38.42 54.94,45.01 61.53,45.01 61.53,38.42 68.13,38.42 
			68.13,38.42 74.72,38.42 74.72,31.83 68.13,31.83 		"/>
		<rect x="54.94" y="77.97" class="st0" width="6.59" height="6.59"/>
		<polygon class="st0" points="48.35,51.6 48.35,51.61 48.35,58.2 48.35,64.79 48.35,71.38 48.35,77.97 54.94,77.97 54.94,71.38 
			54.94,64.79 54.94,58.2 54.94,51.61 54.94,51.6 54.94,45.01 48.35,45.01 		"/>
	</g>
</g>
<g id="Слой_4" class="st5">
	<polygon class="st7" points="138.76,54.44 138.76,54.44 132.16,54.44 132.16,61.04 125.57,61.04 125.57,67.63 118.99,67.63 
		118.99,74.23 112.4,74.23 112.4,80.82 105.81,80.82 105.81,87.42 99.22,87.42 99.21,87.42 92.62,87.42 92.62,87.42 92.61,87.42 
		92.61,80.82 86.02,80.82 86.02,80.82 86.02,80.82 86.02,74.23 79.44,74.23 79.43,74.23 79.43,74.23 79.43,67.63 72.85,67.63 
		72.84,67.63 72.84,67.63 72.84,61.04 66.26,61.04 66.25,61.04 66.25,61.04 66.25,54.44 59.67,54.44 59.66,54.44 53.07,54.44 
		53.07,61.04 59.66,61.04 59.66,67.63 66.25,67.63 66.25,74.23 72.84,74.23 72.84,80.82 79.43,80.82 79.43,87.42 86.02,87.42 
		86.02,87.42 86.03,87.42 86.03,94.01 92.61,94.01 92.61,100.6 92.62,100.6 92.62,100.61 99.21,100.61 105.81,100.61 105.81,94.01 
		105.81,94.01 105.81,94.01 112.4,94.01 112.4,94.01 112.4,87.42 118.99,87.42 118.99,80.82 118.99,80.82 118.99,80.82 
		125.57,80.82 125.57,74.23 125.58,74.23 125.58,74.23 132.16,74.23 132.16,67.63 132.17,67.63 132.17,67.63 138.75,67.63 
		138.75,61.04 138.76,61.04 138.76,61.04 145.34,61.04 145.34,54.44 	"/>
</g>
</svg>
