<?xml version="1.0" encoding="utf-8"?>
<!-- Generator: Adobe Illustrator 24.1.1, SVG Export Plug-In . SVG Version: 6.00 Build 0)  -->
<svg version="1.1" id="Слой_1" xmlns="http://www.w3.org/2000/svg" xmlns:xlink="http://www.w3.org/1999/xlink" x="0px" y="0px"
	 viewBox="0 0 198.4 141.7" style="enable-background:new 0 0 198.4 141.7;" xml:space="preserve">
<style type="text/css">
	.st0{display:none;}
	.st1{display:inline;fill:#FFFFFF;}
	.st2{display:inline;}
	.st3{fill:#676667;}
	.st4{fill:#343334;}
	.st5{fill:#DBDBDB;}
	.st6{display:inline;fill:#919191;}
	.st7{fill:#FFFFFF;}
	.st8{fill:#919191;}
	.st9{fill:#E8E8E8;}
</style>
<g id="Слой_1_1_" class="st0">
	<rect x="109.3" y="54.6" class="st1" width="6.6" height="6.6"/>
	<g class="st2">
		<polygon class="st3" points="142.3,54.6 142.3,48 142.3,41.4 135.7,41.4 135.7,34.8 129.1,34.8 129.1,28.2 122.5,28.2 115.9,28.2 
			115.9,34.8 122.5,34.8 122.5,41.4 129.1,41.4 129.1,48 129.1,54.6 135.7,54.6 135.7,61.2 135.7,67.8 135.7,74.3 135.7,80.9 
			135.7,87.5 129.1,87.5 129.1,94.1 122.5,94.1 122.5,100.7 115.9,100.7 115.9,107.3 109.3,107.3 109.3,113.9 102.7,113.9 
			96.1,113.9 89.6,113.9 83,113.9 83,120.5 89.6,120.5 96.1,120.5 102.7,120.5 109.3,120.5 115.9,120.5 115.9,113.9 122.5,113.9 
			129.1,113.9 129.1,107.3 135.7,107.3 135.7,100.7 142.3,100.7 142.3,94.1 142.3,87.5 148.9,87.5 148.9,80.9 148.9,74.3 
			148.9,67.8 148.9,61.2 148.9,54.6 		"/>
		<polygon class="st3" points="109.3,21.6 102.7,21.6 102.7,28.2 109.3,28.2 115.9,28.2 115.9,21.6 		"/>
		<polygon class="st3" points="76.4,107.3 69.8,107.3 69.8,113.9 76.4,113.9 83,113.9 83,107.3 		"/>
		<rect x="63.2" y="100.7" class="st3" width="6.6" height="6.6"/>
	</g>
	<g class="st2">
		<polygon class="st4" points="129.1,54.6 129.1,48 122.5,48 115.9,48 115.9,54.6 115.9,61.2 109.3,61.2 109.3,67.8 115.9,67.8 
			115.9,74.3 122.5,74.3 129.1,74.3 129.1,67.8 135.7,67.8 135.7,61.2 135.7,54.6 		"/>
		<rect x="122.5" y="87.5" class="st4" width="6.6" height="6.6"/>
		<polygon class="st4" points="109.3,94.1 102.7,94.1 96.1,94.1 89.6,94.1 83,94.1 76.4,94.1 76.4,100.7 83,100.7 89.6,100.7 
			96.1,100.7 102.7,100.7 109.3,100.7 115.9,100.7 122.5,100.7 122.5,94.1 115.9,94.1 		"/>
		<rect x="69.8" y="87.5" class="st4" width="6.6" height="6.6"/>
		<polygon class="st4" points="69.8,74.3 76.4,74.3 83,74.3 83,67.8 89.6,67.8 89.6,61.2 89.6,54.6 83,54.6 83,48 76.4,48 69.8,48 
			69.8,54.6 69.8,61.2 63.2,61.2 63.2,67.8 69.8,67.8 		"/>
	</g>
	<rect x="63.2" y="54.6" class="st1" width="6.6" height="6.6"/>
	<g class="st2">
		<rect x="89.6" y="28.2" class="st5" width="6.6" height="6.6"/>
		<polygon class="st5" points="76.4,34.8 76.4,41.4 69.8,41.4 69.8,48 76.4,48 83,48 89.6,48 89.6,41.4 89.6,34.8 83,34.8 		"/>
		<polygon class="st5" points="76.4,74.3 69.8,74.3 69.8,80.9 69.8,87.5 76.4,87.5 76.4,94.1 83,94.1 83,87.5 83,80.9 76.4,80.9 		
			"/>
		<rect x="63.2" y="67.8" class="st5" width="6.6" height="6.6"/>
		<rect x="63.2" y="48" class="st5" width="6.6" height="6.6"/>
	</g>
	<polygon class="st6" points="129.1,67.8 129.1,74.3 122.5,74.3 115.9,74.3 115.9,67.8 109.3,67.8 109.3,61.2 109.3,54.6 
		115.9,54.6 115.9,48 122.5,48 129.1,48 129.1,41.4 122.5,41.4 122.5,34.8 115.9,34.8 115.9,28.2 109.3,28.2 102.7,28.2 102.7,21.6 
		96.1,21.6 89.6,21.6 83,21.6 83,28.2 76.4,28.2 69.8,28.2 69.8,34.8 63.2,34.8 63.2,41.4 56.6,41.4 56.6,48 56.6,54.6 50,54.6 
		50,61.2 50,67.8 50,74.3 50,80.9 50,87.5 56.6,87.5 56.6,94.1 56.6,100.7 63.2,100.7 69.8,100.7 69.8,107.3 76.4,107.3 83,107.3 
		83,113.9 89.6,113.9 96.1,113.9 102.7,113.9 109.3,113.9 109.3,107.3 115.9,107.3 115.9,100.7 109.3,100.7 102.7,100.7 96.1,100.7 
		89.6,100.7 83,100.7 76.4,100.7 76.4,94.1 69.8,94.1 69.8,87.5 69.8,80.9 69.8,74.3 63.2,74.3 63.2,67.8 63.2,61.2 63.2,54.6 
		63.2,48 69.8,48 69.8,41.4 76.4,41.4 76.4,34.8 83,34.8 89.6,34.8 89.6,28.2 96.1,28.2 96.1,34.8 89.6,34.8 89.6,41.4 89.6,48 
		83,48 83,54.6 89.6,54.6 89.6,61.2 89.6,67.8 83,67.8 83,74.3 76.4,74.3 76.4,80.9 83,80.9 83,87.5 83,94.1 89.6,94.1 96.1,94.1 
		102.7,94.1 109.3,94.1 115.9,94.1 122.5,94.1 122.5,87.5 129.1,87.5 135.7,87.5 135.7,80.9 135.7,74.3 135.7,67.8 	"/>
</g>
<g id="Слой_2_1_" class="st0">
	<g class="st2">
		<g>
			<rect x="86" y="34.7" class="st7" width="6.6" height="6.6"/>
			<polygon class="st7" points="66.3,34.7 59.7,34.7 59.7,34.7 53.1,34.7 53.1,41.3 53.1,41.3 53.1,47.9 53.1,54.5 59.7,54.5 
				59.7,47.9 59.7,41.3 66.3,41.3 72.8,41.3 79.4,41.3 79.4,34.7 72.8,34.7 			"/>
		</g>
		<rect x="99.2" y="87.4" class="st3" width="6.6" height="6.6"/>
		<rect x="86" y="87.4" class="st3" width="6.6" height="6.6"/>
		<rect x="72.8" y="87.4" class="st3" width="6.6" height="6.6"/>
		<rect x="59.7" y="87.4" class="st3" width="6.6" height="6.6"/>
		<rect x="46.5" y="87.4" class="st3" width="6.6" height="6.6"/>
		<rect x="92.6" y="94" class="st3" width="6.6" height="6.6"/>
		<rect x="79.4" y="94" class="st3" width="6.6" height="6.6"/>
		<rect x="66.2" y="94" class="st3" width="6.6" height="6.6"/>
		<rect x="53.1" y="94" class="st3" width="6.6" height="6.6"/>
		<rect x="39.9" y="94" class="st3" width="6.6" height="6.6"/>
		<rect x="119" y="87.4" class="st3" width="6.6" height="6.6"/>
		<rect x="112.4" y="94" class="st3" width="6.6" height="6.6"/>
		<rect x="132.2" y="87.4" class="st3" width="6.6" height="6.6"/>
		<rect x="145.4" y="87.4" class="st3" width="6.6" height="6.6"/>
		<rect x="125.6" y="94" class="st3" width="6.6" height="6.6"/>
		<rect x="138.8" y="94" class="st3" width="6.6" height="6.6"/>
		<rect x="151.9" y="94" class="st3" width="6.6" height="6.6"/>
		<g>
			<path class="st8" d="M59.7,80.8h6.6h6.6h6.6H86h6.6h6.6h6.6h6.6h6.6h6.6h6.6h6.6h6.6h6.6v-6.6v-6.6v-6.6v-6.6v-6.6v-6.6v-6.6
				v-6.6h-6.6h-6.6h-6.6h-6.6H119h-6.6h-6.6h-6.6h-6.6H86h-6.6h-6.6h-6.6h-6.6h-6.6h-6.6v6.6v0v6.6v6.6l0,0v6.6l0,0v6.6v6.6v6.6v6.6
				h6.6L59.7,80.8L59.7,80.8z M53.1,67.7v-6.6v-6.6l0,0v-6.6l0,0v-6.6v-6.6h6.6h6.6h6.6h6.6H86h6.6h6.6h6.6h6.6h6.6h6.6h6.6h6.6h6.6
				v6.6v6.6v6.6v6.6v6.6v6.6h-6.6h-6.6h-6.6H119h-6.6h-6.6h-6.6h-6.6H86h-6.6h-6.6h-6.6h-6.6h-6.6C53.1,74.2,53.1,67.7,53.1,67.7z"
				/>
			<rect x="33.3" y="107.2" class="st8" width="6.6" height="6.6"/>
			<polygon class="st8" points="158.5,107.2 151.9,107.2 151.9,107.2 145.4,107.2 138.8,107.2 132.2,107.2 125.6,107.2 119,107.2 
				112.4,107.2 105.8,107.2 99.2,107.2 92.6,107.2 86,107.2 79.4,107.2 72.8,107.2 66.3,107.2 59.7,107.2 53.1,107.2 46.5,107.2 
				39.9,107.2 39.9,113.8 46.5,113.8 53.1,113.8 59.7,113.8 66.3,113.8 72.8,113.8 79.4,113.8 86,113.8 92.6,113.8 99.2,113.8 
				105.8,113.8 112.4,113.8 119,113.8 125.6,113.8 132.2,113.8 138.8,113.8 145.4,113.8 151.9,113.8 151.9,113.8 158.5,113.8 
				165.1,113.8 165.1,107.2 			"/>
			<rect x="92.6" y="87.4" class="st8" width="6.6" height="6.6"/>
			<polygon class="st8" points="92.6,100.6 92.6,94 86,94 86,87.4 79.4,87.4 79.4,94 86,94 86,100.6 			"/>
			<polygon class="st8" points="79.4,100.6 79.4,94 72.8,94 72.8,87.4 66.3,87.4 66.3,94 72.8,94 72.8,100.6 			"/>
			<polygon class="st8" points="66.2,100.6 66.2,94 59.7,94 59.7,87.4 53.1,87.4 53.1,94 59.7,94 59.7,100.6 			"/>
			<polygon class="st8" points="46.5,100.6 53.1,100.6 53.1,94 46.5,94 46.5,87.4 39.9,87.4 39.9,94 46.5,94 			"/>
			<rect x="33.3" y="94" class="st8" width="6.6" height="6.6"/>
			<polygon class="st8" points="119,94 119,87.4 112.4,87.4 105.8,87.4 105.8,94 112.4,94 			"/>
			<polygon class="st8" points="112.4,100.6 112.4,94 105.8,94 99.2,94 99.2,100.6 105.8,100.6 			"/>
			<rect x="119" y="94" class="st8" width="6.6" height="6.6"/>
			<polygon class="st8" points="151.9,87.4 151.9,94 145.4,94 145.4,87.4 138.8,87.4 138.8,94 132.2,94 132.2,87.4 125.6,87.4 
				125.6,94 132.2,94 132.2,100.6 138.8,100.6 138.8,94 145.4,94 145.4,100.6 151.9,100.6 151.9,94 158.5,94 158.5,100.6 
				165.1,100.6 165.1,94 158.5,94 158.5,87.4 			"/>
		</g>
		<g>
			<polygon class="st4" points="79.4,34.7 79.4,41.3 72.8,41.3 66.3,41.3 59.7,41.3 59.7,47.9 59.7,54.5 53.1,54.5 53.1,61 
				53.1,67.7 53.1,74.2 59.7,74.2 66.3,74.2 72.8,74.2 79.4,74.2 86,74.2 92.6,74.2 99.2,74.2 105.8,74.2 112.4,74.2 119,74.2 
				125.6,74.2 132.2,74.2 138.8,74.2 145.4,74.2 145.4,67.7 145.4,61 145.4,54.5 145.4,47.9 145.4,41.3 145.4,34.7 138.8,34.7 
				132.2,34.7 125.6,34.7 119,34.7 112.4,34.7 105.8,34.7 99.2,34.7 92.6,34.7 92.6,41.3 86,41.3 86,34.7 			"/>
			<polygon class="st4" points="59.7,28.1 66.3,28.1 72.8,28.1 79.4,28.1 86,28.1 92.6,28.1 99.2,28.1 105.8,28.1 112.4,28.1 
				119,28.1 125.6,28.1 132.2,28.1 138.8,28.1 145.4,28.1 151.9,28.1 151.9,21.5 145.4,21.5 138.8,21.5 132.2,21.5 125.6,21.5 
				119,21.5 112.4,21.5 105.8,21.5 99.2,21.5 92.6,21.5 86,21.5 79.4,21.5 72.8,21.5 66.3,21.5 59.7,21.5 53.1,21.5 46.5,21.5 
				46.5,28.1 53.1,28.1 			"/>
			<polygon class="st4" points="39.9,87.4 46.5,87.4 53.1,87.4 59.7,87.4 66.3,87.4 72.8,87.4 79.4,87.4 86,87.4 92.6,87.4 
				99.2,87.4 105.8,87.4 112.4,87.4 119,87.4 125.6,87.4 132.2,87.4 138.8,87.4 145.4,87.4 151.9,87.4 151.9,87.4 158.5,87.4 
				158.5,80.8 158.5,74.2 158.5,67.7 158.5,61 158.5,54.5 158.5,47.9 158.5,41.3 158.5,34.7 158.5,28.1 151.9,28.1 151.9,34.7 
				151.9,41.3 151.9,47.9 151.9,54.5 151.9,61 151.9,67.7 151.9,74.2 151.9,80.8 151.9,80.8 145.4,80.8 138.8,80.8 132.2,80.8 
				125.6,80.8 119,80.8 112.4,80.8 105.8,80.8 99.2,80.8 92.6,80.8 86,80.8 79.4,80.8 72.8,80.8 66.3,80.8 59.7,80.8 53.1,80.8 
				46.5,80.8 46.5,74.2 46.5,74.2 46.5,67.7 46.5,61 46.5,54.5 46.5,47.9 46.5,41.3 46.5,34.7 46.5,34.7 46.5,28.1 39.9,28.1 
				39.9,34.7 39.9,34.7 39.9,41.3 39.9,47.9 39.9,54.5 39.9,61 39.9,67.7 39.9,74.2 39.9,74.2 39.9,80.8 39.9,87.4 33.3,87.4 
				33.3,94 39.9,94 			"/>
			<polygon class="st4" points="33.3,113.6 33.3,107.2 26.7,107.2 26.7,113.8 33.3,113.8 33.3,120.2 39.9,120.2 46.5,120.2 
				46.5,113.6 39.9,113.6 			"/>
			<polygon class="st4" points="138.8,113.6 132.2,113.6 125.6,113.6 119,113.6 112.4,113.6 105.8,113.6 99.2,113.6 92.6,113.6 
				86,113.6 79.4,113.6 72.8,113.6 66.3,113.6 59.7,113.6 53.1,113.6 46.5,113.6 46.5,120.2 53.1,120.2 59.7,120.2 66.3,120.2 
				72.8,120.2 79.4,120.2 86,120.2 92.6,120.2 99.2,120.2 105.8,120.2 112.4,120.2 119,120.2 125.6,120.2 132.2,120.2 138.8,120.2 
				145.4,120.2 151.9,120.2 151.9,113.6 145.4,113.6 			"/>
			<polygon class="st4" points="33.3,107.2 39.9,107.2 39.9,100.6 33.3,100.6 26.7,100.6 20.1,100.6 20.1,107.2 26.7,107.2 			"/>
			<polygon class="st4" points="165.1,113.6 158.6,113.6 151.9,113.6 151.9,120.2 158.6,120.2 165.1,120.2 165.1,113.8 171.7,113.8 
				171.7,107.2 165.1,107.2 			"/>
			<polygon class="st4" points="171.7,100.6 171.7,100.6 165.1,100.6 158.5,100.6 151.9,100.6 151.9,100.6 145.4,100.6 138.8,100.6 
				132.2,100.6 125.6,100.6 119,100.6 112.4,100.6 105.8,100.6 99.2,100.6 92.6,100.6 86,100.6 79.4,100.6 72.8,100.6 66.3,100.6 
				59.7,100.6 53.1,100.6 46.5,100.6 39.9,100.6 39.9,107.2 46.5,107.2 53.1,107.2 59.7,107.2 66.3,107.2 72.8,107.2 79.4,107.2 
				86,107.2 92.6,107.2 99.2,107.2 105.8,107.2 112.4,107.2 119,107.2 125.6,107.2 132.2,107.2 138.8,107.2 145.4,107.2 
				151.9,107.2 151.9,107.2 158.5,107.2 165.1,107.2 171.7,107.2 171.7,107.2 178.3,107.2 178.3,100.6 			"/>
			<rect x="26.7" y="94" class="st4" width="6.6" height="6.6"/>
			<polygon class="st4" points="165.1,100.6 171.7,100.6 171.7,94 165.1,94 165.1,87.4 158.5,87.4 158.5,94 165.1,94 			"/>
		</g>
	</g>
</g>
<g id="Слой_3" class="st0">
	<g class="st2">
		<path class="st4" d="M134.1,45v-6.6h-6.6h-6.6v-6.6h-6.6h-6.6v-6.6h-6.6h-6.6h-6.6v6.6h-6.6h-6.6v6.6h-6.6h-6.6V45H55v6.6v6.6v6.6
			v6.6V78h6.6v6.6h6.6v6.6h6.6h6.6v6.6h-6.6v6.6v6.6h6.6h6.6h6.6v-6.6h6.6h6.6v-6.6h6.6h6.6v-6.6h6.6h6.6v-6.6h6.6V78v-6.6v-6.6
			v-6.6v-6.6V45H134.1z M68.1,64.8v-6.6h6.6h6.6v6.6v6.6h-6.6h-6.6C68.1,71.4,68.1,64.8,68.1,64.8z M107.7,64.8v6.6h-6.6h-6.6v-6.6
			v-6.6h6.6h6.6C107.7,58.2,107.7,64.8,107.7,64.8z M134.1,64.8v6.6h-6.6h-6.6v-6.6v-6.6h6.6h6.6V64.8z"/>
		<rect x="68.1" y="104.3" class="st4" width="6.6" height="6.6"/>
	</g>
	<g class="st2">
		<polygon class="st7" points="147.2,78 147.2,78 147.2,71.4 147.2,64.8 147.2,58.2 147.2,51.6 147.2,45 140.6,45 140.6,51.6 
			140.6,58.2 140.6,64.8 140.6,71.4 140.6,78 140.6,78 140.6,84.6 134.1,84.6 134.1,91.2 140.6,91.2 140.6,84.6 147.2,84.6 		"/>
		<rect x="134.1" y="38.4" class="st7" width="6.6" height="6.6"/>
		<polygon class="st7" points="134.1,71.4 134.1,64.8 134.1,58.2 127.5,58.2 120.9,58.2 120.9,64.8 120.9,71.4 127.5,71.4 		"/>
		<polygon class="st7" points="127.5,31.8 120.9,31.8 120.9,38.4 127.5,38.4 134.1,38.4 134.1,31.8 		"/>
		<polygon class="st7" points="127.5,91.2 120.9,91.2 120.9,97.8 127.5,97.8 127.5,97.8 134.1,97.8 134.1,91.2 		"/>
		<polygon class="st7" points="114.3,25.2 107.7,25.2 107.7,31.8 114.3,31.8 120.9,31.8 120.9,25.2 		"/>
		<polygon class="st7" points="107.7,97.8 107.7,104.3 114.3,104.3 120.9,104.3 120.9,97.8 114.3,97.8 		"/>
		<polygon class="st7" points="107.7,71.4 107.7,64.8 107.7,58.2 101.1,58.2 94.5,58.2 94.5,64.8 94.5,71.4 101.1,71.4 		"/>
		<polygon class="st7" points="101.1,18.6 94.5,18.6 87.9,18.6 87.9,25.2 94.5,25.2 101.1,25.2 107.7,25.2 107.7,18.6 		"/>
		<polygon class="st7" points="94.5,104.3 94.5,110.9 87.9,110.9 81.3,110.9 74.7,110.9 68.1,110.9 68.1,110.9 68.1,104.3 
			61.5,104.3 61.5,110.9 61.5,110.9 61.5,117.5 68.1,117.5 74.7,117.5 81.3,117.5 87.9,117.5 94.5,117.5 94.5,110.9 101.1,110.9 
			107.7,110.9 107.7,104.3 101.1,104.3 		"/>
		<polygon class="st7" points="81.3,71.4 81.3,64.8 81.3,58.2 74.7,58.2 68.1,58.2 68.1,64.8 68.1,71.4 74.7,71.4 		"/>
		<polygon class="st7" points="74.7,25.2 74.7,31.8 81.3,31.8 87.9,31.8 87.9,25.2 81.3,25.2 		"/>
		<polygon class="st7" points="74.7,97.8 81.3,97.8 81.3,91.2 74.7,91.2 68.1,91.2 68.1,97.8 68.1,104.3 74.7,104.3 		"/>
		<rect x="61.5" y="84.6" class="st7" width="6.6" height="6.6"/>
		<polygon class="st7" points="68.1,31.8 61.5,31.8 61.5,38.4 54.9,38.4 54.9,45 61.5,45 61.5,38.4 68.1,38.4 68.1,38.4 74.7,38.4 
			74.7,31.8 		"/>
		<rect x="54.9" y="78" class="st7" width="6.6" height="6.6"/>
		<polygon class="st7" points="48.3,51.6 48.3,51.6 48.3,58.2 48.3,64.8 48.3,71.4 48.3,78 54.9,78 54.9,71.4 54.9,64.8 54.9,58.2 
			54.9,51.6 54.9,51.6 54.9,45 48.3,45 		"/>
	</g>
</g>
<g id="Слой_4">
	<polygon class="st9" points="59.7,100.6 59.7,100.6 66.2,100.6 66.2,94 72.8,94 72.8,87.4 79.4,87.4 79.4,80.8 86,80.8 86,74.2 
		92.6,74.2 92.6,67.6 99.2,67.6 99.2,67.6 105.8,67.6 105.8,67.6 105.8,67.6 105.8,74.2 112.4,74.2 112.4,74.2 112.4,74.2 
		112.4,80.8 119,80.8 119,80.8 119,80.8 119,87.4 125.6,87.4 125.6,87.4 125.6,87.4 125.6,94 132.1,94 132.2,94 132.2,94 
		132.2,100.6 138.7,100.6 138.8,100.6 145.3,100.6 145.3,94 138.8,94 138.8,87.4 132.2,87.4 132.2,80.8 125.6,80.8 125.6,74.2 
		119,74.2 119,67.6 112.4,67.6 112.4,67.6 112.4,67.6 112.4,61 105.8,61 105.8,54.5 105.8,54.5 105.8,54.4 99.2,54.4 92.6,54.4 
		92.6,61 92.6,61 92.6,61 86,61 86,61 86,67.6 79.4,67.6 79.4,74.2 79.4,74.2 79.4,74.2 72.8,74.2 72.8,80.8 72.8,80.8 72.8,80.8 
		66.2,80.8 66.2,87.4 66.2,87.4 66.2,87.4 59.7,87.4 59.7,94 59.7,94 59.7,94 53.1,94 53.1,100.6 	"/>
</g>
</svg>
